<svg xmlns="http://www.w3.org/2000/svg" xmlns:xlink="http://www.w3.org/1999/xlink" viewBox="0 0 124.57 60"><defs><style>.cls-1{fill:#98c21f;}.cls-2{fill:#757b82;}.cls-3,.cls-4{fill:none;stroke:#98c21f;stroke-miterlimit:3.86;}.cls-3{stroke-width:0.69px;}.cls-4{stroke-width:0.71px;}.cls-5{fill:#fff;}</style><symbol id="New_Symbol" data-name="New Symbol" viewBox="0 0 139.85 67.36"><rect class="cls-1" x="0.36" y="38.34" width="139.14" height="14.73"/><path class="cls-2" d="M40.89,0a16.77,16.77,0,0,1,12.3,4.91A16.36,16.36,0,0,1,58.14,17,16.44,16.44,0,0,1,53.2,29.06a16.37,16.37,0,0,1-12,5A16,16,0,0,1,29,29.1L49,17.18l-20.41-12a18.79,18.79,0,0,1,3.91-2.89A16.53,16.53,0,0,1,40.89,0m.24,3.16A13.33,13.33,0,0,0,34.32,5a14.33,14.33,0,0,0-5,5,13.56,13.56,0,0,0-1.81,7.07c0,3.85,1.64,6.89,4,9.72a13.12,13.12,0,0,0,9.6,4,13.83,13.83,0,0,0,7-1.83,13.08,13.08,0,0,0,5-5,14,14,0,0,0,1.8-7,13.69,13.69,0,0,0-1.8-7A13.41,13.41,0,0,0,48,5a13.68,13.68,0,0,0-6.92-1.87"/><path class="cls-2" d="M62.66,9.25h3.06v4.29a12.75,12.75,0,0,1,4.11-3.67,10.2,10.2,0,0,1,4.9-1.21A8.54,8.54,0,0,1,79.5,10a8.13,8.13,0,0,1,3.08,3.67,19.38,19.38,0,0,1,1,7.19V33.2H80.51V21.79a27,27,0,0,0-.36-5.52,6.15,6.15,0,0,0-2.08-3.57,6.23,6.23,0,0,0-4-1.2,7.63,7.63,0,0,0-5,1.85,8.64,8.64,0,0,0-2.92,4.57,31.62,31.62,0,0,0-.44,6.51V33.2H62.66Z"/><path class="cls-2" d="M99.86,8.66a11.9,11.9,0,0,1,9.18,4,12.41,12.41,0,0,1,3.31,8.63,12.42,12.42,0,0,1-3.5,8.75,12.71,12.71,0,0,1-18,0,12.41,12.41,0,0,1-3.5-8.75,12.38,12.38,0,0,1,3.31-8.61,11.89,11.89,0,0,1,9.21-4m0,3a8.89,8.89,0,0,0-6.6,2.83,9.45,9.45,0,0,0-2.76,6.84,9.7,9.7,0,0,0,1.26,4.83,8.9,8.9,0,0,0,3.4,3.45,9.67,9.67,0,0,0,9.4,0,8.89,8.89,0,0,0,3.4-3.45,9.7,9.7,0,0,0,1.26-4.83,9.43,9.43,0,0,0-2.77-6.84,8.9,8.9,0,0,0-6.58-2.83"/><path class="cls-1" d="M48.52,17.18,31.75,7.35s-4.27,4.1-4.15,9.78S32,27,32,27Z"/><path class="cls-3" d="M48.52,17.18,31.75,7.35s-4.27,4.1-4.15,9.78S32,27,32,27Z"/><path class="cls-2" d="M4.82,60.89a4.5,4.5,0,0,1,1.11-3.23A3.77,3.77,0,0,1,8.78,56.5a4,4,0,0,1,2.07.55,3.57,3.57,0,0,1,1.4,1.53,5,5,0,0,1,.48,2.22A4.87,4.87,0,0,1,12.23,63a3.48,3.48,0,0,1-1.44,1.51,4.12,4.12,0,0,1-2,.51,3.92,3.92,0,0,1-2.09-.57A3.64,3.64,0,0,1,5.29,63a4.66,4.66,0,0,1-.47-2.07m1.13,0a3.31,3.31,0,0,0,.8,2.36,2.65,2.65,0,0,0,2,.86,2.64,2.64,0,0,0,2-.87,3.51,3.51,0,0,0,.8-2.47A4.22,4.22,0,0,0,11.26,59a2.62,2.62,0,0,0-1-1.17,2.71,2.71,0,0,0-1.48-.42,2.8,2.8,0,0,0-2,.8,3.56,3.56,0,0,0-.84,2.66"/><path class="cls-2" d="M14.77,64.93v-6h.91v.85a2.16,2.16,0,0,1,1.91-1,2.5,2.5,0,0,1,1,.2,1.58,1.58,0,0,1,.68.51,2,2,0,0,1,.32.75,5.9,5.9,0,0,1,.06,1v3.69h-1V61.28a2.72,2.72,0,0,0-.12-.93,1,1,0,0,0-.42-.49,1.34,1.34,0,0,0-.71-.18,1.64,1.64,0,0,0-1.12.41,2,2,0,0,0-.47,1.57v3.28Z"/><path class="cls-2" d="M21.58,61.92a3.09,3.09,0,0,1,.93-2.47,2.8,2.8,0,0,1,1.89-.67,2.69,2.69,0,0,1,2,.81,3.08,3.08,0,0,1,.79,2.24,4,4,0,0,1-.35,1.82,2.46,2.46,0,0,1-1,1,2.94,2.94,0,0,1-1.45.37,2.69,2.69,0,0,1-2-.81,3.22,3.22,0,0,1-.78-2.32m1,0a2.54,2.54,0,0,0,.5,1.72,1.68,1.68,0,0,0,2.53,0,2.6,2.6,0,0,0,.5-1.75,2.47,2.47,0,0,0-.51-1.68,1.69,1.69,0,0,0-2.53,0,2.53,2.53,0,0,0-.5,1.72"/><path class="cls-2" d="M31.76,64.93l3.18-8.29h1.21l3.37,8.29H38.27l-1-2.51H33.83l-.9,2.51Zm2.38-3.4H37l-.87-2.3q-.39-1-.59-1.73a12.06,12.06,0,0,1-.46,1.6Z"/><path class="cls-2" d="M44.92,62.73l1,.14a2.57,2.57,0,0,1-.84,1.61,2.44,2.44,0,0,1-1.65.58,2.57,2.57,0,0,1-2-.8,3.26,3.26,0,0,1-.75-2.31,4.16,4.16,0,0,1,.32-1.7,2.24,2.24,0,0,1,1-1.09,2.91,2.91,0,0,1,1.43-.36,2.48,2.48,0,0,1,1.6.49,2.27,2.27,0,0,1,.8,1.4l-1,.15a1.64,1.64,0,0,0-.5-.91,1.3,1.3,0,0,0-.87-.31,1.58,1.58,0,0,0-1.25.55,2.61,2.61,0,0,0-.48,1.74,2.7,2.7,0,0,0,.46,1.76,1.51,1.51,0,0,0,1.21.55,1.43,1.43,0,0,0,1-.36,1.82,1.82,0,0,0,.51-1.13"/><path class="cls-2" d="M51.46,64.17a3.79,3.79,0,0,1-1.09.68,3.12,3.12,0,0,1-1.12.2,2.19,2.19,0,0,1-1.52-.48,1.59,1.59,0,0,1-.53-1.23,1.64,1.64,0,0,1,.2-.8,1.66,1.66,0,0,1,.53-.58,2.49,2.49,0,0,1,.73-.33,7.06,7.06,0,0,1,.91-.15,9.4,9.4,0,0,0,1.82-.35c0-.14,0-.23,0-.26a1.11,1.11,0,0,0-.29-.87,1.72,1.72,0,0,0-1.16-.34,1.8,1.8,0,0,0-1.06.25,1.53,1.53,0,0,0-.51.89l-1-.14a2.45,2.45,0,0,1,.45-1,2,2,0,0,1,.9-.61,4,4,0,0,1,1.37-.21,3.6,3.6,0,0,1,1.25.18,1.62,1.62,0,0,1,.71.46,1.6,1.6,0,0,1,.32.69,5.87,5.87,0,0,1,.05.94v1.35a14.84,14.84,0,0,0,.06,1.79,2.34,2.34,0,0,0,.25.73H51.66a2.27,2.27,0,0,1-.2-.75m-.08-2.26a7.52,7.52,0,0,1-1.67.38,3.89,3.89,0,0,0-.89.2.88.88,0,0,0-.4.33A.89.89,0,0,0,48.59,64a1.33,1.33,0,0,0,.9.27,2.11,2.11,0,0,0,1-.26,1.58,1.58,0,0,0,.67-.7,2.43,2.43,0,0,0,.16-1Z"/><path class="cls-2" d="M58.61,64.93v-.76a1.87,1.87,0,0,1-1.68.89,2.35,2.35,0,0,1-1.32-.4,2.6,2.6,0,0,1-.93-1.1,3.83,3.83,0,0,1-.33-1.63,4.27,4.27,0,0,1,.3-1.63,2.35,2.35,0,0,1,.9-1.12,2.41,2.41,0,0,1,1.34-.39,2,2,0,0,1,1,.23,2,2,0,0,1,.69.6v-3h1v8.29Zm-3.22-3a2.58,2.58,0,0,0,.49,1.72,1.47,1.47,0,0,0,1.15.57,1.44,1.44,0,0,0,1.14-.54A2.5,2.5,0,0,0,58.63,62a2.8,2.8,0,0,0-.48-1.8A1.46,1.46,0,0,0,57,59.64a1.41,1.41,0,0,0-1.14.55,2.72,2.72,0,0,0-.45,1.74"/><path class="cls-2" d="M66,63l1.05.14a2.56,2.56,0,0,1-.92,1.43,3.11,3.11,0,0,1-3.8-.3A3.16,3.16,0,0,1,61.59,62a3.31,3.31,0,0,1,.78-2.35,2.63,2.63,0,0,1,2-.84,2.55,2.55,0,0,1,2,.82,3.25,3.25,0,0,1,.76,2.3c0,.06,0,.15,0,.27H62.63a2.3,2.3,0,0,0,.56,1.51,1.66,1.66,0,0,0,1.25.52,1.54,1.54,0,0,0,1-.29A2,2,0,0,0,66,63m-3.33-1.63H66a2,2,0,0,0-.38-1.14,1.55,1.55,0,0,0-1.26-.59,1.61,1.61,0,0,0-1.18.47,1.86,1.86,0,0,0-.53,1.25"/><path class="cls-2" d="M69.11,64.93v-6H70v.85a2.15,2.15,0,0,1,.75-.71,2.12,2.12,0,0,1,1.07-.27,2,2,0,0,1,1.09.28,1.48,1.48,0,0,1,.6.77,2.17,2.17,0,0,1,1.86-1,1.84,1.84,0,0,1,1.38.49,2.11,2.11,0,0,1,.48,1.52v4.12h-1V61.15a2.76,2.76,0,0,0-.1-.88.85.85,0,0,0-.36-.43,1.12,1.12,0,0,0-.61-.16,1.42,1.42,0,0,0-1.05.42,1.85,1.85,0,0,0-.42,1.35v3.49h-1V61a1.72,1.72,0,0,0-.25-1,.94.94,0,0,0-.81-.34,1.48,1.48,0,0,0-.79.23,1.28,1.28,0,0,0-.53.66,3.73,3.73,0,0,0-.16,1.25v3.11Z"/><path class="cls-2" d="M80.53,57.79h-1V56.64h1Zm0,7.13h-1v-6h1Z"/><path class="cls-2" d="M86.77,62.73l1,.14a2.56,2.56,0,0,1-.84,1.61,2.44,2.44,0,0,1-1.65.58,2.57,2.57,0,0,1-2-.8,3.26,3.26,0,0,1-.75-2.31,4.19,4.19,0,0,1,.32-1.7,2.25,2.25,0,0,1,1-1.09,2.91,2.91,0,0,1,1.43-.36,2.49,2.49,0,0,1,1.6.49,2.26,2.26,0,0,1,.8,1.4l-1,.15a1.66,1.66,0,0,0-.5-.91,1.3,1.3,0,0,0-.87-.31,1.58,1.58,0,0,0-1.25.55,2.61,2.61,0,0,0-.48,1.74A2.7,2.7,0,0,0,84,63.67a1.51,1.51,0,0,0,1.21.55,1.43,1.43,0,0,0,1-.36,1.82,1.82,0,0,0,.51-1.13"/><path class="cls-2" d="M99.37,62l1.1.28a3.7,3.7,0,0,1-1.24,2.06,3.41,3.41,0,0,1-2.19.71,3.93,3.93,0,0,1-2.18-.54,3.41,3.41,0,0,1-1.27-1.58,5.65,5.65,0,0,1-.44-2.22,4.9,4.9,0,0,1,.49-2.26A3.39,3.39,0,0,1,95.05,57a4.11,4.11,0,0,1,2-.5,3.38,3.38,0,0,1,2.09.63,3.29,3.29,0,0,1,1.18,1.78l-1.08.25a2.57,2.57,0,0,0-.83-1.32A2.22,2.22,0,0,0,97,57.44a2.69,2.69,0,0,0-1.59.46,2.44,2.44,0,0,0-.9,1.23,5,5,0,0,0-.26,1.59,5.08,5.08,0,0,0,.31,1.84,2.31,2.31,0,0,0,1,1.18,2.67,2.67,0,0,0,1.4.39,2.34,2.34,0,0,0,1.55-.53A2.72,2.72,0,0,0,99.37,62"/><path class="cls-2" d="M102.07,61.92a3.09,3.09,0,0,1,.93-2.47,2.79,2.79,0,0,1,1.89-.67,2.69,2.69,0,0,1,2,.81,3.08,3.08,0,0,1,.79,2.24,4,4,0,0,1-.35,1.82,2.46,2.46,0,0,1-1,1,2.94,2.94,0,0,1-1.45.37,2.7,2.7,0,0,1-2-.81,3.22,3.22,0,0,1-.78-2.32m1,0a2.53,2.53,0,0,0,.5,1.72,1.68,1.68,0,0,0,2.53,0,2.61,2.61,0,0,0,.51-1.75,2.47,2.47,0,0,0-.51-1.68,1.69,1.69,0,0,0-2.53,0,2.52,2.52,0,0,0-.5,1.72"/><rect class="cls-2" x="109.62" y="56.64" width="1.02" height="8.29"/><rect class="cls-2" x="112.95" y="56.64" width="1.02" height="8.29"/><path class="cls-2" d="M120.4,63l1.05.14a2.55,2.55,0,0,1-.92,1.43,3.11,3.11,0,0,1-3.79-.3A3.16,3.16,0,0,1,116,62a3.31,3.31,0,0,1,.78-2.35,2.63,2.63,0,0,1,2-.84,2.55,2.55,0,0,1,2,.82,3.25,3.25,0,0,1,.76,2.3c0,.06,0,.15,0,.27H117a2.3,2.3,0,0,0,.56,1.51,1.66,1.66,0,0,0,1.25.52,1.54,1.54,0,0,0,1-.29,2,2,0,0,0,.63-.94m-3.33-1.63h3.34a2,2,0,0,0-.38-1.14,1.56,1.56,0,0,0-1.26-.59,1.61,1.61,0,0,0-1.18.47,1.86,1.86,0,0,0-.53,1.25"/><path class="cls-2" d="M123.3,65.43l1,.14a.94.94,0,0,0,.35.67,1.69,1.69,0,0,0,1,.28,1.82,1.82,0,0,0,1.09-.28,1.37,1.37,0,0,0,.52-.79,6.38,6.38,0,0,0,.07-1.3,2.09,2.09,0,0,1-1.66.79,2.26,2.26,0,0,1-1.92-.89,3.44,3.44,0,0,1-.68-2.14,4,4,0,0,1,.31-1.58,2.48,2.48,0,0,1,.9-1.12,2.43,2.43,0,0,1,1.39-.4,2.14,2.14,0,0,1,1.75.87v-.74h.94v5.19a4.93,4.93,0,0,1-.28,2,2.08,2.08,0,0,1-.9.92,3.12,3.12,0,0,1-1.52.34,2.87,2.87,0,0,1-1.73-.48,1.63,1.63,0,0,1-.64-1.45m.83-3.61a2.6,2.6,0,0,0,.47,1.72,1.55,1.55,0,0,0,2.35,0,2.51,2.51,0,0,0,.48-1.69,2.46,2.46,0,0,0-.49-1.66,1.52,1.52,0,0,0-1.18-.56,1.47,1.47,0,0,0-1.15.55,2.44,2.44,0,0,0-.47,1.63"/><path class="cls-2" d="M134.78,63l1.05.14a2.57,2.57,0,0,1-.92,1.43,3.11,3.11,0,0,1-3.8-.3,3.17,3.17,0,0,1-.77-2.27,3.31,3.31,0,0,1,.78-2.35,2.62,2.62,0,0,1,2-.84,2.55,2.55,0,0,1,2,.82,3.25,3.25,0,0,1,.76,2.3c0,.06,0,.15,0,.27h-4.47a2.3,2.3,0,0,0,.56,1.51,1.66,1.66,0,0,0,1.25.52,1.55,1.55,0,0,0,1-.29,2,2,0,0,0,.63-.94m-3.33-1.63h3.34a2,2,0,0,0-.38-1.14,1.56,1.56,0,0,0-1.26-.59,1.61,1.61,0,0,0-1.17.47,1.85,1.85,0,0,0-.53,1.25"/><rect class="cls-4" x="0.36" y="38.34" width="139.14" height="14.73"/><path class="cls-5" d="M6.54,50a1.11,1.11,0,0,1-.32.75,1,1,0,0,1-.71.36,1.23,1.23,0,0,1-.74-.26.82.82,0,0,1-.4-.67v-8a.8.8,0,0,1,.37-.66,1.26,1.26,0,0,1,.77-.27,1,1,0,0,1,.74.34,1.1,1.1,0,0,1,.32.76Z"/><path class="cls-5" d="M11.94,49.55a1.46,1.46,0,0,1-.63,1.34,2.69,2.69,0,0,1-1.5.35,2.31,2.31,0,0,1-1.75-.55.78.78,0,0,1-.21-.58q0-.57.83-1.13c.3-.2.48-.32.54-.38a.76.76,0,0,0,.3-.55V43.7c0-.12-.11-.24-.34-.36l-.5-.23q-.84-.41-.83-1a.81.81,0,0,1,.3-.61,1,1,0,0,1,.65-.28.89.89,0,0,1,.76.36,4.59,4.59,0,0,1,.38.74,1.18,1.18,0,0,0,.46.61l.84.36a1.11,1.11,0,0,1,.6.63,2.08,2.08,0,0,1,.11.73Z"/><path class="cls-5" d="M15.41,50a1.1,1.1,0,0,1-.32.75,1,1,0,0,1-.71.36,1.23,1.23,0,0,1-.74-.26.82.82,0,0,1-.4-.67v-8a.8.8,0,0,1,.36-.66,1.26,1.26,0,0,1,.77-.27,1,1,0,0,1,.73.34,1.1,1.1,0,0,1,.32.76Z"/><path class="cls-5" d="M24.85,50a1.11,1.11,0,0,1-.32.75,1,1,0,0,1-.71.36A1.42,1.42,0,0,1,23,50.8a.79.79,0,0,1-.42-.65V48.22a1.73,1.73,0,0,0-.2-.51q-.19-.24-.26-.24H19.42a.43.43,0,0,0-.29.19A.54.54,0,0,0,19,48v1.85a.21.21,0,0,1-.05.1l-.08.22-.19.45a.91.91,0,0,1-.89.51,1.05,1.05,0,0,1-.66-.26.8.8,0,0,1-.38-.59V48c0-.31.28-.61.83-.88l.49-.22q.35-.19.35-.32v-.93q0-.18-.34-.35l-.5-.22c-.56-.24-.83-.53-.83-.85V42.09a.73.73,0,0,1,.34-.61,1.21,1.21,0,0,1,.72-.24,1,1,0,0,1,.81.39,1.59,1.59,0,0,1,.32.88c0,.06,0,.18,0,.36L19,44c0,.19,0,.32,0,.38a.62.62,0,0,0,.18.34.44.44,0,0,0,.32.15h2.6c.13,0,.25-.11.38-.32a1,1,0,0,0,.16-.43V42.17a.79.79,0,0,1,.38-.67,1.37,1.37,0,0,1,.8-.26,1,1,0,0,1,.73.34,1.1,1.1,0,0,1,.32.76v1.59a1,1,0,0,1-.47.9c-.21.1-.51.26-.9.49a.93.93,0,0,0-.49.81,1,1,0,0,0,.5.82l.89.49a1.08,1.08,0,0,1,.47.93Z"/><path class="cls-5" d="M40.6,49.89a1,1,0,0,1-.34.77,1.12,1.12,0,0,1-.79.33,1,1,0,0,1-.84-.42,1.47,1.47,0,0,1-.33-.93V43.85c0-.1-.08-.21-.24-.33a.75.75,0,0,0-.38-.17H35.75a1,1,0,0,0-.82.49,1.57,1.57,0,0,0-.31.93v5.36l-.15.24-.24.38a1.24,1.24,0,0,1-.34.28,3.45,3.45,0,0,1-1.42.2q-1.93,0-1.93-1.2a1,1,0,0,1,.3-.67,4.83,4.83,0,0,1,.6-.47,5.08,5.08,0,0,0,.61-.49,1,1,0,0,0,.28-.7V42.35a1.17,1.17,0,0,1,.38-.85,2,2,0,0,1,.83-.47,2,2,0,0,1,.59-.1h2.67l.4.06a3.92,3.92,0,0,1,.49.09.94.94,0,0,1,.43.26,2.83,2.83,0,0,1,.39.63,4.69,4.69,0,0,0,.3.63,1,1,0,0,0,.46.36l.58.24a1.12,1.12,0,0,1,.73,1.07Z"/><path class="cls-5" d="M44.08,45.45a.74.74,0,0,1-.34.57,1.09,1.09,0,0,1-.67.26,1.23,1.23,0,0,1-1.17-1.17v-2.6a1.34,1.34,0,0,1,.32-.89,1,1,0,0,1,.82-.38,1.19,1.19,0,0,1,.71.24.72.72,0,0,1,.34.61Z"/><path class="cls-5" d="M53.46,50.05a1,1,0,0,1-.77,1,3.34,3.34,0,0,1-1.28.23,2.33,2.33,0,0,1-1.77-.55.79.79,0,0,1-.22-.58,1.15,1.15,0,0,1,.46-.89l.84-.62a1.15,1.15,0,0,0,.46-.89V44.44q0-1.11-1.8-1.11a3.13,3.13,0,0,0-1,.12,1.29,1.29,0,0,0-.67.73,1.55,1.55,0,0,0-.12.34v5.37a1,1,0,0,1-.36.76,1.11,1.11,0,0,1-.77.34,1.19,1.19,0,0,1-.75-.27.81.81,0,0,1-.34-.66V42.17a1,1,0,0,1,.39-.78,1.9,1.9,0,0,1,.81-.41,2.69,2.69,0,0,1,.57-.07h4.6a2.26,2.26,0,0,1,1.11.28,1,1,0,0,1,.66.89Z"/><path class="cls-5" d="M62.65,42.15a1.22,1.22,0,0,1-.47.92l-.86.65a1.31,1.31,0,0,0-.47,1v5.45a.79.79,0,0,1-.42.65,1.41,1.41,0,0,1-.77.28,1,1,0,0,1-.73-.38,1.21,1.21,0,0,1-.34-.8V44.62a1.09,1.09,0,0,0-.26-.7,1.55,1.55,0,0,0-.63-.47h-.23l-.7-.05h-.24A2.41,2.41,0,0,1,55,42.73a.76.76,0,0,1-.19-.54q0-1,1.38-1.2a4.16,4.16,0,0,1,.65-.06h3.86a2.34,2.34,0,0,1,1.81.61.92.92,0,0,1,.2.61"/><path class="cls-5" d="M72.17,47.29a1,1,0,0,1,0,.11l-.05.24c-.05.27-.09.44-.11.51a1.24,1.24,0,0,1-.23.46,2.07,2.07,0,0,1-.61.4,3.37,3.37,0,0,0-.66.36,1.38,1.38,0,0,0-.35.45l-.28.54a1.06,1.06,0,0,1-.94.62.91.91,0,0,1-.65-.28.88.88,0,0,1-.29-.65q0-.53.85-1l.47-.23q.36-.19.36-.3V44.1a.73.73,0,0,0-.32-.53.91.91,0,0,0-.53-.27H65.56a1.65,1.65,0,0,1-1-.34,1.06,1.06,0,0,1-.51-.88,1,1,0,0,1,.51-.86,1.71,1.71,0,0,1,1-.31h4.77a1.72,1.72,0,0,1,1.38.55,2.16,2.16,0,0,1,.47,1.46Zm-6,5.36a2,2,0,0,1-.27,1.07,1,1,0,0,1-.9.53c-.59,0-1-.37-1.11-1.11a2.5,2.5,0,0,1-.07-.57v-5a2,2,0,0,1,.27-1.07,1,1,0,0,1,1.79,0,1.8,1.8,0,0,1,.28,1Z"/><path class="cls-5" d="M81.63,50a1.11,1.11,0,0,1-.32.75,1,1,0,0,1-.71.36,1.42,1.42,0,0,1-.77-.28.79.79,0,0,1-.42-.65V48.22a1.73,1.73,0,0,0-.2-.51c-.12-.16-.21-.24-.26-.24H76.2a.43.43,0,0,0-.3.19.54.54,0,0,0-.16.31v1.85a.21.21,0,0,1-.05.1l-.08.22-.19.45a.91.91,0,0,1-.89.51,1.05,1.05,0,0,1-.66-.26.8.8,0,0,1-.38-.59V48c0-.31.28-.61.84-.88l.49-.22c.23-.13.35-.23.35-.32v-.93c0-.12-.11-.23-.34-.35l-.5-.22c-.56-.24-.84-.53-.84-.85V42.09a.73.73,0,0,1,.34-.61,1.2,1.2,0,0,1,.71-.24,1,1,0,0,1,.81.39,1.59,1.59,0,0,1,.32.88c0,.06,0,.18,0,.36L75.75,44c0,.19,0,.32,0,.38a.62.62,0,0,0,.17.34.44.44,0,0,0,.32.15h2.6c.13,0,.25-.11.38-.32a1,1,0,0,0,.16-.43V42.17a.79.79,0,0,1,.38-.67,1.37,1.37,0,0,1,.8-.26,1,1,0,0,1,.73.34,1.1,1.1,0,0,1,.32.76v1.59a1,1,0,0,1-.47.9c-.21.1-.51.26-.9.49a.93.93,0,0,0-.49.81,1,1,0,0,0,.5.82l.89.49a1.09,1.09,0,0,1,.47.93Z"/><path class="cls-5" d="M91.17,49.39a2.13,2.13,0,0,1-.3,1.11,1,1,0,0,1-.92.58,1,1,0,0,1-.81-.42,2,2,0,0,1-.38-.85,2.93,2.93,0,0,1-.07-.59V43.7s0-.11-.15-.18a.45.45,0,0,0-.23-.11h-3.6a2,2,0,0,1-1.09-.32,1.06,1.06,0,0,1-.59-.92c0-.56.39-.93,1.19-1.11A8.46,8.46,0,0,1,86,40.92h.54A6.68,6.68,0,0,1,87.9,41a1.35,1.35,0,0,1,.8.54c.11.23.29.58.54,1a2.09,2.09,0,0,0,.94.61A1.37,1.37,0,0,1,91,44l.16.69c0,.08,0,.13,0,.15Zm-6-.58v.31c0,.13,0,.24,0,.31v.2Q85,51.08,84,51.08q-.78,0-1.05-1a6.45,6.45,0,0,1-.14-1.57A6.84,6.84,0,0,1,82.92,47q.27-1,1.05-1c.55,0,.91.34,1.08,1a8.39,8.39,0,0,1,.11,1.63Z"/><path class="cls-5" d="M105.37,49.39a2.13,2.13,0,0,1-.3,1.11,1.05,1.05,0,0,1-.92.58,1,1,0,0,1-.81-.42,2,2,0,0,1-.38-.85,2.93,2.93,0,0,1-.07-.59V43.7s0-.11-.15-.18a.44.44,0,0,0-.23-.11h-3.6a2,2,0,0,1-1.09-.32,1.06,1.06,0,0,1-.6-.92q0-.84,1.19-1.11a8.45,8.45,0,0,1,1.75-.14h.54a6.68,6.68,0,0,1,1.39.12,1.36,1.36,0,0,1,.8.54q.16.35.54,1a2.09,2.09,0,0,0,.94.61,1.37,1.37,0,0,1,.81.82l.16.69c0,.08,0,.13,0,.15Zm-6-.58v.31c0,.13,0,.24,0,.31v.2c-.1,1-.49,1.44-1.17,1.44q-.78,0-1.05-1A6.45,6.45,0,0,1,97,48.56,6.84,6.84,0,0,1,97.12,47q.27-1,1.05-1t1.08,1a8.29,8.29,0,0,1,.11,1.63Z"/><path class="cls-5" d="M108.85,45.45a.74.74,0,0,1-.34.57,1.09,1.09,0,0,1-.67.26,1.22,1.22,0,0,1-1.17-1.17v-2.6a1.34,1.34,0,0,1,.32-.89,1,1,0,0,1,.82-.38,1.19,1.19,0,0,1,.71.24.72.72,0,0,1,.34.61Z"/><path class="cls-5" d="M116.12,49.73a1.35,1.35,0,0,1-.32.89A1,1,0,0,1,115,51a1.07,1.07,0,0,1-.83-.39,1.3,1.3,0,0,1-.34-.88V44a.64.64,0,0,0-.2-.44.69.69,0,0,0-.43-.24h-.54a4.19,4.19,0,0,1-2-.28,1,1,0,0,1-.61-1q0-1.17,1.94-1.17a2.61,2.61,0,0,1,1.5.34,2,2,0,0,1,.58,1,1,1,0,0,0,.55.64l.7.3a1,1,0,0,1,.51.51c.09.22.16.43.23.64l0,.11Z"/><path class="cls-5" d="M125.8,47.29a.7.7,0,0,1,0,.11l-.05.24c-.05.27-.09.44-.11.51a1.21,1.21,0,0,1-.23.46,2.1,2.1,0,0,1-.61.4,3.37,3.37,0,0,0-.66.36,1.4,1.4,0,0,0-.35.45l-.28.54a1.05,1.05,0,0,1-.94.62.92.92,0,0,1-.65-.28.88.88,0,0,1-.29-.65q0-.53.85-1l.47-.23q.36-.19.36-.3V44.1a.73.73,0,0,0-.32-.53.91.91,0,0,0-.53-.27h-3.26a1.65,1.65,0,0,1-1-.34,1.06,1.06,0,0,1-.51-.88,1,1,0,0,1,.51-.86,1.7,1.7,0,0,1,1-.31H124a1.72,1.72,0,0,1,1.38.55,2.16,2.16,0,0,1,.47,1.46Zm-6,5.36a2,2,0,0,1-.27,1.07,1,1,0,0,1-.9.53q-.88,0-1.11-1.11a2.49,2.49,0,0,1-.07-.57v-5a2,2,0,0,1,.27-1.07,1,1,0,0,1,1.79,0,1.81,1.81,0,0,1,.28,1Z"/><path class="cls-5" d="M135.5,49.39a2.13,2.13,0,0,1-.3,1.11,1.05,1.05,0,0,1-.92.58,1,1,0,0,1-.81-.42,2,2,0,0,1-.38-.85,2.92,2.92,0,0,1-.07-.59V43.7s0-.11-.15-.18a.44.44,0,0,0-.23-.11h-3.6a2,2,0,0,1-1.09-.32,1.06,1.06,0,0,1-.59-.92q0-.84,1.19-1.11a8.46,8.46,0,0,1,1.75-.14h.54a6.66,6.66,0,0,1,1.39.12,1.36,1.36,0,0,1,.8.54q.16.35.54,1a2.1,2.1,0,0,0,.94.61,1.37,1.37,0,0,1,.81.82l.16.69c0,.08,0,.13,0,.15Zm-6-.58v.31c0,.13,0,.24,0,.31v.2q-.15,1.44-1.17,1.44-.78,0-1.05-1a6.45,6.45,0,0,1-.13-1.57,6.84,6.84,0,0,1,.13-1.58q.27-1,1.05-1t1.08,1a8.37,8.37,0,0,1,.11,1.63Z"/></symbol></defs><title>logo</title><g id="Layer_2" data-name="Layer 2"><g id="Graphics"><use width="139.85" height="67.36" transform="scale(0.89)" xlink:href="#New_Symbol"/></g></g></svg>