<svg xmlns="http://www.w3.org/2000/svg" viewBox="0 0 264.27 202.49"><defs><style>.cls-1{fill:#648014;}.cls-2{fill:#453838;}.cls-3{fill:#fff;}.cls-4{fill:#5d5a61;}.cls-5{fill:#98c21f;}</style></defs><title>ribbon</title><g id="Layer_2" data-name="Layer 2"><g id="Graphics"><polygon class="cls-1" points="199.34 96.63 264.27 96.63 249.06 117.27 264.27 138.17 199.34 138.17 199.34 96.63"/><polygon class="cls-2" points="199.32 96.64 239.33 114.08 239.33 155.62 199.32 138.18 199.32 96.64"/><polygon class="cls-1" points="64.93 96.63 0 96.63 15.21 117.27 0 138.17 64.93 138.17 64.93 96.63"/><polygon class="cls-2" points="64.94 96.64 24.94 114.08 24.94 155.62 64.94 138.18 64.94 96.64"/><path class="cls-3" d="M143.23,202.49a10,10,0,0,1-6.78-2.73l-4.94-4.59a.62.62,0,0,0-.37-.1.61.61,0,0,0-.35.09l-5,4.49a10,10,0,0,1-6.63,2.58,9.82,9.82,0,0,1-8.32-4.71l-3.58-5.72a.73.73,0,0,0-.54-.22.38.38,0,0,0-.15,0l-6,3a10.12,10.12,0,0,1-4.58,1.1,9.77,9.77,0,0,1-9.31-7l-2-6.45a.75.75,0,0,0-.58-.36l-6.64,1.37a10.55,10.55,0,0,1-2.13.22A9.68,9.68,0,0,1,65.52,174l-.24-6.75a.73.73,0,0,0-.5-.51L58,166.31A9.74,9.74,0,0,1,49,154.24l1.51-6.58a.73.73,0,0,0-.35-.62l-6.41-2.12a9.74,9.74,0,0,1-5.63-14l3.16-6a.73.73,0,0,0-.18-.69l-5.64-3.71a9.73,9.73,0,0,1-1.81-15l4.6-4.94a.74.74,0,0,0,0-.71l-4.49-5a9.74,9.74,0,0,1,2.13-15l5.72-3.58a.73.73,0,0,0,.19-.69l-3-6a9.74,9.74,0,0,1,5.93-13.89l6.46-2a.73.73,0,0,0,.36-.61L50.12,46.5a9.73,9.73,0,0,1,9.32-11.88l6.75-.25a.74.74,0,0,0,.51-.5l.39-6.74a9.71,9.71,0,0,1,9.73-9.33,10.54,10.54,0,0,1,2.34.27l6.58,1.51h0a.76.76,0,0,0,.61-.35l2.12-6.41A9.68,9.68,0,0,1,97.72,6a10.21,10.21,0,0,1,4.76,1.21l6,3.16a.42.42,0,0,0,.17,0,.72.72,0,0,0,.52-.2l3.71-5.64A9.85,9.85,0,0,1,121.06,0a10,10,0,0,1,6.78,2.72l4.94,4.59a.61.61,0,0,0,.37.1.62.62,0,0,0,.35-.09l5-4.49A10,10,0,0,1,145.17.26,9.82,9.82,0,0,1,153.48,5l3.59,5.72a.73.73,0,0,0,.54.22.38.38,0,0,0,.15,0l6-3a10.09,10.09,0,0,1,4.58-1.1,9.77,9.77,0,0,1,9.31,7l2,6.45a.76.76,0,0,0,.58.37l6.64-1.37A10.63,10.63,0,0,1,189,19a9.68,9.68,0,0,1,9.75,9.54l.25,6.75a.73.73,0,0,0,.5.51l6.74.39a9.74,9.74,0,0,1,9.06,12.08l-1.51,6.58a.73.73,0,0,0,.35.62l6.41,2.12a9.74,9.74,0,0,1,5.63,14l-3.16,6a.73.73,0,0,0,.18.69L228.85,82a9.74,9.74,0,0,1,1.81,15l-4.59,4.94a.74.74,0,0,0,0,.71l4.49,5a9.74,9.74,0,0,1-2.13,14.95l-5.72,3.59a.74.74,0,0,0-.19.68l3,6a9.74,9.74,0,0,1-5.93,13.89l-6.45,2a.73.73,0,0,0-.36.61l1.37,6.61a9.74,9.74,0,0,1-9.32,11.88l-6.75.25a.73.73,0,0,0-.51.5l-.39,6.74a9.72,9.72,0,0,1-9.74,9.33,10.44,10.44,0,0,1-2.34-.27l-6.58-1.51h0a.76.76,0,0,0-.62.35l-2.12,6.41a9.68,9.68,0,0,1-9.25,6.84,10.2,10.2,0,0,1-4.76-1.2l-6-3.16a.39.39,0,0,0-.16,0,.73.73,0,0,0-.53.2L151.44,198a9.85,9.85,0,0,1-8.21,4.54Z"/><path class="cls-4" d="M208.92,157.07a4.39,4.39,0,0,1-4.27,5.44l-6.75.24a6,6,0,0,0-5.66,5.54l-.39,6.74a4.38,4.38,0,0,1-5.53,4.15l-6.58-1.51a6,6,0,0,0-6.9,3.89L170.72,188a4.38,4.38,0,0,1-6.42,2.58l-6-3.16a6,6,0,0,0-7.68,2L147,195a4.38,4.38,0,0,1-6.86.83l-4.94-4.6a6,6,0,0,0-7.92-.08l-5,4.49a4.38,4.38,0,0,1-6.85-1L111.75,189a6,6,0,0,0-7.63-2.13l-6,3a4.39,4.39,0,0,1-6.36-2.71l-2-6.45a6,6,0,0,0-6.82-4L76.32,178a4.39,4.39,0,0,1-5.44-4.27L70.63,167a6,6,0,0,0-5.54-5.66L58.34,161a4.38,4.38,0,0,1-4.15-5.53l1.51-6.58a6,6,0,0,0-3.89-6.9l-6.41-2.12a4.39,4.39,0,0,1-2.58-6.42l3.16-6a6,6,0,0,0-2-7.67l-5.64-3.71a4.39,4.39,0,0,1-.83-6.87l4.6-4.94a6,6,0,0,0,.08-7.92l-4.49-5a4.38,4.38,0,0,1,1-6.85l5.72-3.59a6,6,0,0,0,2.13-7.63l-3-6a4.38,4.38,0,0,1,2.71-6.36l6.45-2a6,6,0,0,0,4-6.82l-1.37-6.61A4.38,4.38,0,0,1,59.63,40l6.75-.25A6,6,0,0,0,72,34.19l.39-6.74A4.38,4.38,0,0,1,78,23.3l6.58,1.51a6,6,0,0,0,6.9-3.89l2.12-6.41A4.38,4.38,0,0,1,100,11.93l6,3.16a6,6,0,0,0,7.67-2l3.71-5.65a4.38,4.38,0,0,1,6.86-.83l4.95,4.6a6,6,0,0,0,7.92.08l5-4.49a4.38,4.38,0,0,1,6.85,1l3.59,5.72a6,6,0,0,0,7.63,2.13l6-3a4.38,4.38,0,0,1,6.36,2.71l2,6.45a6,6,0,0,0,6.82,4L188,24.46a4.39,4.39,0,0,1,5.44,4.27l.25,6.75a6,6,0,0,0,5.54,5.66l6.74.39a4.38,4.38,0,0,1,4.15,5.53l-1.51,6.58a6,6,0,0,0,3.89,6.9l6.41,2.12a4.38,4.38,0,0,1,2.58,6.42l-3.16,6a6,6,0,0,0,2,7.67l5.64,3.71a4.38,4.38,0,0,1,.83,6.86l-4.6,4.94a6,6,0,0,0-.09,7.92l4.49,5a4.38,4.38,0,0,1-1,6.85l-5.72,3.59a6,6,0,0,0-2.13,7.63l3,6a4.38,4.38,0,0,1-2.71,6.36l-6.45,2a6,6,0,0,0-4,6.82Z"/><circle class="cls-4" cx="132.14" cy="101.25" r="81.74"/><circle class="cls-3" cx="132.14" cy="101.25" r="78.35"/><circle class="cls-4" cx="132.14" cy="101.25" r="73.22"/><rect class="cls-5" x="24.96" y="114.08" width="214.37" height="41.54"/><path class="cls-3" d="M98.56,161.28h0a.78.78,0,0,1-.3-1.07h0a.78.78,0,0,1,1.06-.3h0a66.91,66.91,0,0,0,32.82,8.55h0A66.91,66.91,0,0,0,165,159.91h0a.78.78,0,0,1,1.07.3h0a.78.78,0,0,1-.3,1.07h0A68.48,68.48,0,0,1,132.14,170h0a68.48,68.48,0,0,1-33.58-8.75Zm101-51.4a.79.79,0,0,1-.69-.87h0a68.13,68.13,0,0,0,.45-7.77h0a67,67,0,0,0-19.69-47.53h0A67,67,0,0,0,132.14,34h0A67,67,0,0,0,84.61,53.72h0a67,67,0,0,0-19.69,47.53h0a67.74,67.74,0,0,0,.45,7.77h0a.79.79,0,0,1-.69.87h0a.78.78,0,0,1-.87-.69h0a69.34,69.34,0,0,1-.46-7.95h0a68.78,68.78,0,0,1,68.78-68.78h0a68.78,68.78,0,0,1,68.78,68.78h0a69.34,69.34,0,0,1-.46,7.95h0a.78.78,0,0,1-.78.69h-.09Z"/><path class="cls-3" d="M32.52,145.59v-5.38h4.76v5.38Zm3.64-8.23H33.56l-.91-8.22V120.7H37v8.43Z"/><path class="cls-3" d="M48.59,145.59V127.46H40.67v-3.6H52.94v21.73Zm-7.92,0V129.85H45v15.74Z"/><path class="cls-3" d="M61.34,145.59V142h3.5l-.27-12.55a2.82,2.82,0,0,0-.19-1.14,2,2,0,0,0-.42-.63,1.13,1.13,0,0,0-.47-.27,1.63,1.63,0,0,0-.38-.07q-1.26,0-1.51,1.94l-2.14,16.35H54.95l2.72-17.23-1.2-.24L55,127.84l.3-4.52a17.44,17.44,0,0,1,2.41.77q1.28.51,2.16.89a5.5,5.5,0,0,1,1.41-.9,5.11,5.11,0,0,1,2.19-.42,6.82,6.82,0,0,1,.71,0,6.12,6.12,0,0,1,1,.19,7.19,7.19,0,0,1,1,.37,4.4,4.4,0,0,1,1,.61,4.53,4.53,0,0,1,1.47,2.34A14,14,0,0,1,69,130.9l.07,14.69Z"/><path class="cls-3" d="M73.47,145.59l0-18.13H71.3v-3.6h6.52v21.73Z"/><path class="cls-3" d="M88.56,134.85l3,7.85v2.89H81.24v-3.67h5.41l-7.17-18.06h4.73l2.21,6.26,1.46-6.26h4.38q-.33,1.2-.81,2.64l-1,3q-.51,1.51-1,2.92T88.56,134.85Z"/><path class="cls-3" d="M95.94,136.71l0-9.25H93.79v-3.6h6.52v12.85Z"/><path class="cls-3" d="M114.63,137.42a11,11,0,0,1-.22,2.28,7,7,0,0,1-.71,1.93,6.43,6.43,0,0,1-1.93,2.17,15.52,15.52,0,0,1-2.78,1.59l-6.87,3V144.1l3-1.23-2.89-19h4.7l2,17.51a3,3,0,0,0,1.2-1.13,3.72,3.72,0,0,0,.39-2l-.42-14.39h4.6Z"/><path class="cls-3" d="M117,145.59V142h6.19V127.46h-6v-3.6h10.38V142h1.73v3.64Z"/><path class="cls-3" d="M146.39,145.59V127.46h-7.92v-3.6h12.27v21.73Zm-7.92,0V129.85h4.32v15.74Z"/><path class="cls-3" d="M159.14,145.59V142h3.5l-.27-12.55a2.82,2.82,0,0,0-.19-1.14,2,2,0,0,0-.42-.63,1.13,1.13,0,0,0-.47-.27,1.63,1.63,0,0,0-.38-.07q-1.26,0-1.51,1.94l-2.14,16.35h-4.52l2.72-17.23-1.2-.24-1.49-.27.3-4.52a17.44,17.44,0,0,1,2.41.77q1.28.51,2.16.89a5.5,5.5,0,0,1,1.41-.9,5.11,5.11,0,0,1,2.19-.42,6.82,6.82,0,0,1,.71,0,6.12,6.12,0,0,1,1,.19,7.19,7.19,0,0,1,1,.37,4.4,4.4,0,0,1,1,.61,4.53,4.53,0,0,1,1.47,2.34,14,14,0,0,1,.41,3.67l.07,14.69Z"/><path class="cls-3" d="M188.67,138.32a9.72,9.72,0,0,1-.54,3.24,6.21,6.21,0,0,1-1.5,2.31,4.47,4.47,0,0,1-1.13.82,9.15,9.15,0,0,1-1.25.53,6.8,6.8,0,0,1-1.16.29,6.25,6.25,0,0,1-.91.08H170.24l-.78-21.73H174l.32,18.06h2.86l-.2-2.62-.07-15.44h4.35v3.69l-.15,14.38h.9a2.45,2.45,0,0,0,.72-.17,2.25,2.25,0,0,0,.8-.47,2,2,0,0,0,.56-.88,5,5,0,0,0,.22-1.68l0-14.86h4.45Z"/><path class="cls-3" d="M198,145.59V129.4a2,2,0,0,0-.46-1.49,1.72,1.72,0,0,0-1.25-.45h-5.2v-3.6h6.19a7.88,7.88,0,0,1,1.87.22,4.2,4.2,0,0,1,1.63.79,3.91,3.91,0,0,1,1.14,1.53,6.14,6.14,0,0,1,.42,2.46v16.73Z"/><path class="cls-3" d="M213,145.59V127.46h-7.92v-3.6h12.27v21.73Zm-7.92,0V129.85h4.32v15.74Z"/><path class="cls-3" d="M228,145.59V127.46h-7.92v-3.6h12.27v21.73Zm-7.92,0V129.85h4.32v15.74Z"/><path class="cls-5" d="M100.35,76.5H96.44q.09-2.23.42-4.72t.87-5Q98.27,64.31,99,62a40.6,40.6,0,0,1,1.54-4.25H94.58V54h10.5v2.66a16.67,16.67,0,0,0-1.9,3.88,43.83,43.83,0,0,0-1.43,5q-.61,2.68-1,5.52T100.35,76.5Z"/><path class="cls-5" d="M119.66,76.5V61.74a1.84,1.84,0,0,0-.42-1.36A1.57,1.57,0,0,0,118.1,60h-4.74V56.68H119a7.16,7.16,0,0,1,1.7.2,3.83,3.83,0,0,1,1.49.72,3.56,3.56,0,0,1,1,1.39,5.59,5.59,0,0,1,.39,2.24V76.5Z"/><path class="cls-5" d="M127.68,76.5l0-16.53h-2V56.68h5.95V76.5Z"/><path class="cls-5" d="M139.49,60V76.5h-4V60h-1.8V56.68h7.81V60Z"/><path class="cls-5" d="M150.75,76.5V60h-3.28V76.5h-3.94V56.68h11.19V76.5Z"/><path class="cls-5" d="M162.38,76.5V73.18h3.19l-.24-11.44a2.56,2.56,0,0,0-.17-1,1.76,1.76,0,0,0-.38-.58,1,1,0,0,0-.43-.25,1.49,1.49,0,0,0-.35-.06q-1.15,0-1.38,1.77l-2,14.91h-4.12L159,60.78l-1.09-.22-1.36-.25.27-4.12a15.92,15.92,0,0,1,2.19.7q1.17.46,2,.81a5,5,0,0,1,1.29-.82,4.65,4.65,0,0,1,2-.39,6.22,6.22,0,0,1,.65,0,5.58,5.58,0,0,1,.87.17,6.56,6.56,0,0,1,.93.34,4,4,0,0,1,.89.56A4.13,4.13,0,0,1,169,59.75a12.7,12.7,0,0,1,.37,3.35l.06,13.4Z"/><path class="cls-5" d="M72.38,104.24a7.75,7.75,0,0,1,.37-2.47,20.93,20.93,0,0,1,.81-2.05L77.21,92a9.09,9.09,0,0,0,.49-1.33,4.19,4.19,0,0,0,.18-1.07,1.88,1.88,0,0,0-.18-.86,2.08,2.08,0,0,0-.42-.58,1.6,1.6,0,0,0-.54-.34,1.52,1.52,0,0,0-.53-.11,3.22,3.22,0,0,0-1.34.35,4.15,4.15,0,0,0-1.45,1.23l-.48-3.35a2.87,2.87,0,0,1,1.52-1.17,6.23,6.23,0,0,1,2-.32,5.49,5.49,0,0,1,1.72.28,4.57,4.57,0,0,1,1.54.86,4.2,4.2,0,0,1,1.1,1.5,5.31,5.31,0,0,1,.42,2.21,6.7,6.7,0,0,1-.44,2.31,26.09,26.09,0,0,1-1.06,2.47L76.4,101h5.17v3.25Z"/><path class="cls-5" d="M87.7,104.54a3.5,3.5,0,0,1-2.45-.82,5.16,5.16,0,0,1-1.37-2.19,12.59,12.59,0,0,1-.6-3.19q-.13-1.83-.13-3.83t.13-3.77a13.33,13.33,0,0,1,.59-3.2,5.09,5.09,0,0,1,1.37-2.23,3.52,3.52,0,0,1,2.47-.83,3.69,3.69,0,0,1,2.47.77,4.77,4.77,0,0,1,1.38,2.14,12.59,12.59,0,0,1,.6,3.19q.13,1.83.13,3.92,0,1.92-.13,3.72a13.6,13.6,0,0,1-.59,3.21,5.13,5.13,0,0,1-1.38,2.26A3.53,3.53,0,0,1,87.7,104.54Zm0-16.87a.79.79,0,0,0-.43.14,1.37,1.37,0,0,0-.38.79,13.39,13.39,0,0,0-.27,2q-.1,1.38-.1,3.88t.1,3.84a13.79,13.79,0,0,0,.27,2,1.48,1.48,0,0,0,.38.82.76.76,0,0,0,.92,0,1.6,1.6,0,0,0,.4-.84,12.06,12.06,0,0,0,.27-2.06q.09-1.38.09-3.79t-.12-3.88a12.69,12.69,0,0,0-.29-2,1.36,1.36,0,0,0-.41-.79A.86.86,0,0,0,87.68,87.67Z"/><path class="cls-5" d="M97.72,104.24V90.61a7.86,7.86,0,0,1-1.43,1q-.82.47-1.56.84v-3.4q.89-.59,1.45-1a4,4,0,0,0,.93-1A7,7,0,0,0,97.85,86a11.46,11.46,0,0,0,.62-1.47h2.46v19.75Z"/><path class="cls-5" d="M109.65,104.24h-3.38q.08-1.92.36-4.08t.75-4.31q.47-2.15,1.09-4.16A35.16,35.16,0,0,1,109.81,88h-5.14V84.78h9.08v2.3a14.41,14.41,0,0,0-1.64,3.36,37.92,37.92,0,0,0-1.24,4.33q-.52,2.32-.83,4.77T109.65,104.24Z"/><path class="cls-5" d="M126.35,104.24V91.48A1.59,1.59,0,0,0,126,90.3a1.35,1.35,0,0,0-1-.35h-4.1V87.11h4.88a6.18,6.18,0,0,1,1.47.18,3.32,3.32,0,0,1,1.29.62,3.08,3.08,0,0,1,.9,1.2,4.84,4.84,0,0,1,.33,1.94v13.19Z"/><path class="cls-5" d="M131.47,104.24v-2.87h4.88V90H131.6V87.11h8.18v14.27h1.36v2.87Z"/><path class="cls-5" d="M144.14,104.24l0-14.29h-1.69V87.11h5.14v17.13Z"/><path class="cls-5" d="M160.64,89.36,160.59,99a6.37,6.37,0,0,1-.5,2.58,4.55,4.55,0,0,1-1.2,1.61,4.11,4.11,0,0,1-1.62.83,7,7,0,0,1-1.75.23h-5.6l-.33-17.13H153l.1,14.24h2.28a3.06,3.06,0,0,0,.6-.08,2,2,0,0,0,.73-.33,2.06,2.06,0,0,0,.62-.74,2.86,2.86,0,0,0,.25-1.32l0-9.32H157v.56l-.48,3.32h-3.08l1.36-6.33h5.8Z"/><path class="cls-5" d="M170.5,104.24h-3.4L169.55,90h-6.73V87.11h10.48Zm-7.67,4.35V91.51h3.4v17.08Z"/><path class="cls-5" d="M176.25,104.24l0-14.29h-1.69V87.11h5.14v17.13Z"/><path class="cls-5" d="M188.66,104.24l-2.42-6.49-.85-2.67-.69,9.16h-3.47L183,92.53,181,87.11h3.81l2.92,7.8,1-7.8h3.48l-2.36,10.4,2.62,6.73Z"/></g></g></svg>