<svg style="position: absolute; width: 0; height: 0; overflow: hidden;" version="1.1" xmlns="http://www.w3.org/2000/svg" xmlns:xlink="http://www.w3.org/1999/xlink">
<defs>
<symbol id="icon-speacker" viewBox="0 0 36 32">
<title>speacker</title>
<path d="M30.080 6.285l1.811-2.074c0.12-0.156 0.192-0.354 0.192-0.57s-0.072-0.413-0.194-0.572l0.002 0.002c-0.102-0.176-0.29-0.292-0.505-0.292-0.17 0-0.323 0.073-0.429 0.189l-0 0-1.83 2.074c-0.12 0.156-0.192 0.354-0.192 0.57s0.072 0.413 0.194 0.572l-0.002-0.002c0.101 0.183 0.292 0.305 0.512 0.305 0.176 0 0.334-0.078 0.441-0.202l0.001-0.001zM30.675 9.35c0.054 0.277 0.295 0.484 0.585 0.484 0.073 0 0.142-0.013 0.207-0.037l-0.004 0.001 2.458-0.89c0.28-0.119 0.473-0.391 0.473-0.709 0-0.069-0.009-0.135-0.026-0.199l0.001 0.005c-0.054-0.277-0.295-0.484-0.585-0.484-0.073 0-0.142 0.013-0.207 0.037l0.004-0.001-2.477 0.902c-0.267 0.124-0.448 0.39-0.448 0.698 0 0.070 0.009 0.138 0.027 0.203l-0.001-0.005zM31.866 13.44c0.018 0.357 0.311 0.64 0.671 0.64 0 0 0.001 0 0.001 0h2.701c0.345-0.035 0.613-0.324 0.613-0.675s-0.267-0.641-0.61-0.675l-0.003-0h-2.701c-0 0-0.001 0-0.001 0-0.371 0-0.672 0.301-0.672 0.672 0 0.014 0 0.027 0.001 0.040l-0-0.002zM4.896 15.648c-0.243-0.755-1.139-0.371-1.478-0.262-1.92 0.64-4.64 1.715-2.81 7.245 0.044 0.123 0.096 0.228 0.158 0.327l-0.004-0.007c1.69 2.528 3.84 2.515 5.83 2.074 0.166-0.058 1.12-0.557 0.909-1.229zM20.666 3.744c-0.672 0.774-1.344 1.549-2.048 2.24-1.018 1.048-2.080 2.033-3.192 2.961l-0.066 0.054c-0.734 0.612-1.549 1.187-2.41 1.694l-0.086 0.047c-0.809 0.52-1.747 1.019-2.725 1.441l-0.129 0.050-3.802 1.21c-0.339 0.109-0.544 0.922-0.544 1.197l2.976 9.344c0.134 0.422 0.915 0.531 1.216 0.64l0.544-0.083 6.24-1.395c0.762-0.16 5.005-0.218 5.12-0.243 1.542 0.224 3.059 0.371 4.544 0.71 0.211 0.045 1.126 0.32 2.17 0.602l-7.245-21.12c-0.301 0.326-0.48 0.563-0.563 0.653zM35.968 17.574l-2.477-0.934c-0.060-0.023-0.13-0.036-0.203-0.036-0.289 0-0.53 0.206-0.584 0.48l-0.001 0.004c-0.016 0.058-0.025 0.125-0.025 0.193 0 0.318 0.193 0.59 0.468 0.707l0.005 0.002 2.477 0.902c0.060 0.023 0.13 0.036 0.203 0.036 0.289 0 0.53-0.206 0.584-0.48l0.001-0.004c0.011-0.049 0.018-0.106 0.018-0.164 0-0.315-0.19-0.586-0.461-0.704l-0.005-0.002zM17.069 23.68c-1.978 0.416-4.147 1.018-5.971 1.472l7.418 6.573c0.947 0.64 2.464-0.083 2.797-0.198 0.166-0.058 1.414-0.474 2.054-0.781 0.166-0.058 0.73-0.32 0.339-0.64zM26.24 1.741c-0.211-0.64-0.941-2.093-2.266-1.664-0.653 0.392-1.199 0.895-1.627 1.488l-0.011 0.016 7.808 23.040c0.442 0.141 0.949 0.222 1.476 0.222 0.077 0 0.154-0.002 0.23-0.005l-0.011 0c1.075-0.358 1.12-1.664 0.832-2.854z"></path>
</symbol>
<symbol id="icon-laptop" viewBox="0 0 48 32">
<title>laptop</title>
<path d="M29.093 10.432h-9.248l-0.384-2.032-3.147-1.376c-0.047-0.023-0.103-0.036-0.161-0.036-0.209 0-0.379 0.17-0.379 0.379 0 0.158 0.096 0.293 0.234 0.35l0.003 0.001 2.763 1.189 1.797 9.227s0-0.043 0-0.037c0.011 0.206 0.177 0.37 0.383 0.379l0.001 0h7.275c0.013 0.002 0.028 0.003 0.044 0.003 0.197 0 0.357-0.16 0.357-0.357s-0.16-0.357-0.357-0.357c-0.015 0-0.030 0.001-0.045 0.003l0.002-0h-6.96l-0.197-1.067 7.653-0.277 1.099-5.195c0.009-0.043 0.015-0.092 0.015-0.142 0-0.377-0.306-0.683-0.683-0.683-0.024 0-0.048 0.001-0.071 0.004l0.003-0z"></path>
<path d="M22.704 20.123c0 0.616-0.499 1.115-1.115 1.115s-1.115-0.499-1.115-1.115c0-0.616 0.499-1.115 1.115-1.115s1.115 0.499 1.115 1.115z"></path>
<path d="M28.709 20.123c0 0.616-0.499 1.115-1.115 1.115s-1.115-0.499-1.115-1.115c0-0.616 0.499-1.115 1.115-1.115s1.115 0.499 1.115 1.115z"></path>
<path d="M43.141 24.416v-21.109c-0.053-1.836-1.554-3.304-3.397-3.307h-31.467c-1.824 0-3.536 1.52-3.536 3.307v21.109h-4.741v1.515c0.044 3.316 2.705 5.996 6.009 6.069l0.007 0h36c3.258-0.083 5.867-2.744 5.867-6.014 0-0.019-0-0.039-0-0.058l0 0.003v-1.515zM7.824 3.307c0-0.096 0.315-0.224 0.469-0.224h31.467c0.155 0 0.315 0.133 0.315 0.224v21.109h-32.251zM28.8 29.392h-9.6c-0.695-0.029-1.248-0.6-1.248-1.3 0-0 0-0.001 0-0.001v0c0.001-0.128 0.020-0.251 0.056-0.366l-0.002 0.009h12c0.033 0.107 0.052 0.23 0.053 0.357v0c0 0 0 0 0 0.001 0 0.704-0.559 1.277-1.256 1.301l-0.002 0z"></path>
</symbol>
<symbol id="icon-money" viewBox="0 0 35 32">
<title>money</title>
<path d="M32.633 9.196l2.547-2.29 0.257-6.481-6.472-0.425-2.547 2.29 6.472 0.425-0.257 6.481z"></path>
<path d="M34.064 18.423c0 1.284-2.094 2.326-4.678 2.326s-4.678-1.041-4.678-2.326c0-1.284 2.094-2.326 4.678-2.326s4.678 1.041 4.678 2.326z"></path>
<path d="M29.387 21.953c2.215 0 4.102-0.78 4.567-1.821 0.069 0.148 0.11 0.322 0.111 0.505v0c0 1.285-2.095 2.326-4.678 2.326s-4.678-1.041-4.678-2.326c-0-0.007-0-0.016-0-0.024 0-0.174 0.036-0.339 0.101-0.489l-0.003 0.008c0.474 1.041 2.343 1.821 4.58 1.821z"></path>
<path d="M29.387 24.213c2.215 0 4.102-0.78 4.567-1.821 0.069 0.148 0.11 0.322 0.111 0.505v0c0 1.285-2.095 2.326-4.678 2.326s-4.678-1.041-4.678-2.326c-0-0.007-0-0.016-0-0.024 0-0.174 0.036-0.339 0.101-0.489l-0.003 0.008c0.474 1.041 2.343 1.821 4.58 1.821z"></path>
<path d="M29.387 26.472c2.215 0 4.102-0.78 4.567-1.821 0.069 0.148 0.11 0.322 0.111 0.505v0c0 1.285-2.095 2.326-4.678 2.326s-4.678-1.041-4.678-2.326c-0-0.007-0-0.016-0-0.024 0-0.174 0.036-0.339 0.101-0.489l-0.003 0.008c0.474 1.041 2.343 1.821 4.58 1.821z"></path>
<path d="M29.387 28.731c2.215 0 4.102-0.78 4.567-1.821 0.069 0.148 0.11 0.322 0.111 0.505v0c0 1.285-2.095 2.326-4.678 2.326s-4.678-1.041-4.678-2.326c-0-0.007-0-0.016-0-0.024 0-0.174 0.036-0.339 0.101-0.489l-0.003 0.008c0.474 1.041 2.343 1.821 4.58 1.821z"></path>
<path d="M29.387 31.008c2.215 0 4.102-0.78 4.567-1.821 0.066 0.145 0.105 0.313 0.106 0.491v0c0 1.285-2.095 2.326-4.678 2.326s-4.673-1.045-4.673-2.326c-0-0.009-0-0.018-0-0.029 0-0.174 0.036-0.339 0.101-0.489l-0.003 0.008c0.474 1.041 2.343 1.838 4.58 1.838z"></path>
<path d="M22.56 22.76c0 1.284-2.094 2.326-4.678 2.326s-4.678-1.041-4.678-2.326c0-1.284 2.094-2.326 4.678-2.326s4.678 1.041 4.678 2.326z"></path>
<path d="M17.883 26.295c2.215 0 4.102-0.78 4.567-1.821 0.069 0.148 0.11 0.322 0.111 0.505v0c0 1.285-2.095 2.326-4.678 2.326s-4.678-1.041-4.678-2.326c0.001-0.183 0.042-0.357 0.114-0.513l-0.003 0.008c0.465 1.041 2.334 1.821 4.567 1.821z"></path>
<path d="M17.883 28.554c2.215 0 4.102-0.78 4.567-1.821 0.069 0.148 0.11 0.322 0.111 0.505v0c0 1.285-2.095 2.326-4.678 2.326s-4.678-1.041-4.678-2.326c0.001-0.183 0.042-0.357 0.114-0.513l-0.003 0.008c0.465 1.041 2.334 1.821 4.567 1.821z"></path>
<path d="M17.883 30.813c2.215 0 4.102-0.78 4.567-1.821 0.069 0.148 0.11 0.322 0.111 0.505v0c0 1.285-2.095 2.326-4.678 2.326s-4.678-1.041-4.678-2.326c0.001-0.183 0.042-0.357 0.114-0.513l-0.003 0.008c0.465 1.041 2.334 1.821 4.567 1.821z"></path>
<path d="M11.118 27.234c0 1.284-2.094 2.326-4.678 2.326s-4.678-1.041-4.678-2.326c0-1.284 2.094-2.326 4.678-2.326s4.678 1.041 4.678 2.326z"></path>
<path d="M6.441 30.769c2.215 0 4.102-0.78 4.567-1.821 0.069 0.148 0.11 0.322 0.111 0.505v0c0 1.285-2.095 2.326-4.678 2.326s-4.669-1.045-4.669-2.33c0.001-0.183 0.042-0.357 0.114-0.513l-0.003 0.008c0.456 1.045 2.326 1.825 4.558 1.825z"></path>
<path d="M0.886 20.102c-0.004 0-0.009 0-0.013 0-0.489 0-0.886-0.397-0.886-0.886 0-0.269 0.12-0.51 0.309-0.672l0.001-0.001 6.831-6.14 9.395 2.702 15.305-12.447c0.152-0.126 0.35-0.202 0.565-0.202 0.492 0 0.891 0.399 0.891 0.891 0 0.277-0.126 0.524-0.324 0.688l-0.002 0.001-16.031 13.050-9.342-2.693-6.091 5.48c-0.157 0.143-0.366 0.23-0.596 0.23-0.004 0-0.008-0-0.011-0h0.001z"></path>
</symbol>
<symbol id="icon-arrow" viewBox="0 0 29 32">
<title>arrow</title>
<path d="M14.281 31.93c-0.446 0-0.808-0.362-0.808-0.808v0-30.313c0-0.446 0.362-0.808 0.808-0.808s0.808 0.362 0.808 0.808v0 30.313c0 0.446-0.362 0.808-0.808 0.808v0z"></path>
<path d="M14.281 32c-0.223-0-0.425-0.091-0.571-0.237v0l-13.473-13.473c-0.134-0.144-0.217-0.338-0.217-0.551 0-0.446 0.362-0.808 0.808-0.808 0.213 0 0.407 0.083 0.552 0.217l-0-0 12.901 12.896 12.901-12.901c0.144-0.134 0.338-0.217 0.551-0.217 0.446 0 0.808 0.362 0.808 0.808 0 0.213-0.083 0.407-0.217 0.552l0-0-13.473 13.473c-0.145 0.148-0.347 0.241-0.571 0.242h-0z"></path>
</symbol>
<symbol id="icon-Asset-3" viewBox="0 0 41 32">
<title>Asset-3</title>
<path d="M35.4 0l-19.867 16.493-7.387-8.013-8.147 8.16 15.36 15.36 25.973-25.96-5.933-6.040z"></path>
</symbol>
<symbol id="icon-form" viewBox="0 0 26 32">
<title>form</title>
<path d="M10.688 20.8v0c-0.488-0.004-0.923-0.226-1.214-0.573l-0.002-0.003-3.072-3.776 2.416-2.048 1.872 2.272 6.032-7.072 2.48 2-7.296 8.592c-0.288 0.362-0.723 0.595-1.214 0.608l-0.002 0z"></path>
<path d="M24 0h-22.4c-0.884 0-1.6 0.716-1.6 1.6v0 28.8c0 0.884 0.716 1.6 1.6 1.6v0h17.344c0.003 0 0.006 0 0.009 0 0.44 0 0.838-0.177 1.127-0.464l5.024-5.024c0.285-0.288 0.462-0.683 0.464-1.12v-23.792c0-0 0-0 0-0 0-0.872-0.698-1.582-1.566-1.6l-0.002-0zM3.2 3.2h19.2v20.8h-3.2c-0.884 0-1.6 0.716-1.6 1.6v0 3.2h-14.4z"></path>
</symbol>
<symbol id="icon-phone" viewBox="0 0 32 32">
<title>phone</title>
<path d="M16.008 0c-0.004 0-0.010 0-0.015 0-8.841 0-16.008 7.167-16.008 16.008s7.167 16.008 16.008 16.008c8.841 0 16.008-7.167 16.008-16.008v0c0-8.835-7.158-15.999-15.992-16.008h-0.001zM20.238 25.729c-1.365-0.105-10.232-2.235-13.982-12.797-0.75-2.205 0.18-5.776 2.745-6.571s3.856 2.76 4.231 5.026l-2.25 2.235s0 1.395 3 4.501 4.501 3 4.501 3l2.52-2.625c1.909 0.692 3.558 1.537 5.079 2.558l-0.083-0.053c-0.143 2.669-2.342 4.778-5.034 4.778-0.256 0-0.509-0.019-0.755-0.056l0.028 0.003z"></path>
</symbol>
<symbol id="icon-share" viewBox="0 0 34 32">
<title>share</title>
<path d="M25.333 16l2.493-1.973v15.627c0 0 0 0 0 0 0 1.291-1.043 2.339-2.333 2.347h-23.147c-1.296 0-2.347-1.051-2.347-2.347v0-23.147c0-1.296 1.051-2.347 2.347-2.347h12.96c-1.449 0.753-2.693 1.669-3.774 2.747l0-0h-8.787v22.347h22.347v-13.107zM33.48 7.067l-8.867-7.067v4.32l-0.893-0.080c-0.48 0-0.96 0-1.427 0-0.099-0.003-0.216-0.004-0.333-0.004-3.965 0-7.523 1.745-9.948 4.509l-0.013 0.015c-3.267 3.653-5.173 9.467-5.2 15.413 1.502-4.090 3.964-7.527 7.122-10.156l0.038-0.031c1.339-1.044 2.904-1.877 4.602-2.412l0.105-0.028c1.264-0.398 2.717-0.627 4.224-0.627 0.006 0 0.011 0 0.017 0h1.706v3.467l8.88-7.053c0.064-0.041 0.108-0.108 0.12-0.185l0-0.001c-0.030-0.042-0.071-0.074-0.118-0.093l-0.002-0.001z"></path>
</symbol>
</defs>
</svg>
