<svg height="0" overflow="hidden" width="0" xmlns="http://www.w3.org/2000/svg"><defs><symbol id="icon-dude" viewBox="0 0 40 32"><path d="m25.664 5.696c0 3.146-2.55 5.696-5.696 5.696s-5.696-2.55-5.696-5.696c0-3.146 2.55-5.696 5.696-5.696s5.696 2.55 5.696 5.696z"/><path d="m39.104 26.368h-38.208c-.512 0-.896-.384-.896-.896v-1.088c0-.512.384-.896.896-.896h38.208c.512 0 .896.384.896.896v1.088c-.064.512-.448.896-.896.896z"/><path d="m15.488 11.584c0 1.272-1.032 2.304-2.304 2.304s-2.304-1.032-2.304-2.304c0-1.272 1.032-2.304 2.304-2.304s2.304 1.032 2.304 2.304z"/><path d="m6.848 22.656v-2.368c0-.896.32-1.728.96-2.368l3.648-3.648c-.384-.256-.768-.576-1.024-1.024l-3.648 3.648c-.896.896-1.408 2.112-1.408 3.392v2.368z"/><path d="m32.512 32h-25.024c-.576 0-1.088-.512-1.088-1.088v-3.456c0-.192.192-.384.384-.384h26.432c.192 0 .384.192.384.384v3.456c0 .576-.512 1.088-1.088 1.088z"/><path d="m28.608 22.656h2.048v-4.032c0-3.392-2.176-5.12-3.904-5.696 1.216 1.472 1.856 3.328 1.856 5.312z"/><path d="m24.896 12.096c-.512-.384-1.216-.448-1.792-.192-.96.448-1.984.704-3.072.704s-2.176-.256-3.072-.704c-.192-.064-.32-.128-.512-.192-.064 1.664-1.472 3.008-3.136 3.008-.128 0-.192 0-.32 0-.512 1.024-.832 2.24-.832 3.52v4.416h15.808v-4.416c-.064-2.496-1.28-4.736-3.072-6.144z"/><path d="m9.344 17.664c-.064.32-.064.64-.064.96v4.032h2.048v-4.416c0-1.088.192-2.176.576-3.136z"/></symbol><symbol id="icon-targer" viewBox="0 0 33 32"><path d="m21.577 15.634c.503 1.189.777 2.469.777 3.794s-.274 2.606-.777 3.794c-.503 1.143-1.189 2.194-2.103 3.109s-1.92 1.6-3.109 2.103c-1.189.503-2.469.777-3.794.777s-2.606-.274-3.794-.777c-1.143-.503-2.194-1.189-3.109-2.103s-1.6-1.92-2.103-3.109c-.503-1.189-.777-2.469-.777-3.794s.274-2.606.777-3.794c.503-1.143 1.189-2.194 2.103-3.109s1.92-1.6 3.109-2.103c1.189-.503 2.469-.777 3.794-.777s2.606.274 3.794.777c.549.229 1.097.549 1.6.869l2.011-2.011c-.777-.594-1.646-1.051-2.514-1.417-1.554-.64-3.2-1.006-4.891-1.006s-3.337.32-4.891 1.006c-1.509.64-2.834 1.554-3.977 2.697s-2.057 2.469-2.697 3.977c-.686 1.554-1.006 3.2-1.006 4.891s.32 3.337 1.006 4.891c.64 1.509 1.509 2.834 2.651 4.023 1.143 1.143 2.469 2.057 3.977 2.697 1.554.64 3.2 1.006 4.891 1.006s3.337-.32 4.891-1.006c1.509-.64 2.834-1.554 3.977-2.697s2.057-2.469 2.697-3.977c.64-1.554 1.006-3.2 1.006-4.891s-.32-3.337-1.006-4.891c-.366-.914-.869-1.737-1.417-2.514l-2.011 2.011c.366.457.64 1.006.914 1.554z"/><path d="m16.731 19.429c0 2.331-1.874 4.206-4.206 4.206s-4.206-1.874-4.206-4.206c0-2.331 1.874-4.206 4.206-4.206.457 0 .869.091 1.28.183l2.103-2.103c-1.006-.549-2.149-.869-3.383-.869-3.84 0-6.994 3.154-6.994 6.994s3.154 6.994 6.994 6.994c3.84 0 6.994-3.154 6.994-6.994 0-1.234-.32-2.377-.869-3.383l-2.103 2.103c.137.411.183.869.183 1.28z"/><path d="m21.12 9.554-9.051 9.051h-.046c-.229.183-.366.457-.366.777 0 .549.411.96.96.96.32 0 .594-.137.777-.366l8.823-8.823 1.737-.32 3.931-.777 4.709-4.846-3.886-1.371-1.737-3.84-4.023 4.343-1.051 3.063z"/></symbol><symbol id="icon-speacker" viewBox="0 0 36 32"><path d="m30.08 6.285 1.811-2.074c.12-.156.192-.354.192-.57s-.072-.413-.194-.572l.002.002c-.102-.176-.29-.292-.505-.292-.17 0-.323.073-.429.189l0 0-1.83 2.074c-.12.156-.192.354-.192.57s.072.413.194.572l-.002-.002c.101.183.292.305.512.305.176 0 .334-.078.441-.202l.001-.001zm.595 3.065c.054.277.295.484.585.484.073 0 .142-.013.207-.037l-.004.001 2.458-.89c.28-.119.473-.391.473-.709 0-.069-.009-.135-.026-.199l.001.005c-.054-.277-.295-.484-.585-.484-.073 0-.142.013-.207.037l.004-.001-2.477.902c-.267.124-.448.39-.448.698 0 .07.009.138.027.203l-.001-.005zm1.191 4.09c.018.357.311.64.671.64 0 0 .001 0 .001 0h2.701c.345-.035.613-.324.613-.675s-.267-.641-.61-.675l-.003 0h-2.701c0 0-.001 0-.001 0-.371 0-.672.301-.672.672 0 .014 0 .027.001.04zm-26.97 2.208c-.243-.755-1.139-.371-1.478-.262-1.92.64-4.64 1.715-2.81 7.245.044.123.096.228.158.327l-.004-.007c1.69 2.528 3.84 2.515 5.83 2.074.166-.058 1.12-.557.909-1.229zm15.77-11.904c-.672.774-1.344 1.549-2.048 2.24-1.018 1.048-2.08 2.033-3.192 2.961l-.066.054c-.734.612-1.549 1.187-2.41 1.694l-.086.047c-.809.52-1.747 1.019-2.725 1.441l-.129.05-3.802 1.21c-.339.109-.544.922-.544 1.197l2.976 9.344c.134.422.915.531 1.216.64l.544-.083 6.24-1.395c.762-.16 5.005-.218 5.12-.243 1.542.224 3.059.371 4.544.71.211.045 1.126.32 2.17.602l-7.245-21.12c-.301.326-.48.563-.563.653zm15.302 13.83-2.477-.934c-.06-.023-.13-.036-.203-.036-.289 0-.53.206-.584.48l-.001.004c-.016.058-.025.125-.025.193 0 .318.193.59.468.707l.005.002 2.477.902c.06.023.13.036.203.036.289 0 .53-.206.584-.48l.001-.004c.011-.049.018-.106.018-.164 0-.315-.19-.586-.461-.704zm-18.899 6.106c-1.978.416-4.147 1.018-5.971 1.472l7.418 6.573c.947.64 2.464-.083 2.797-.198.166-.058 1.414-.474 2.054-.781.166-.058.73-.32.339-.64zm9.171-21.939c-.211-.64-.941-2.093-2.266-1.664-.653.392-1.199.895-1.627 1.488l-.011.016 7.808 23.04c.442.141.949.222 1.476.222.077 0 .154-.002.23-.005l-.011 0c1.075-.358 1.12-1.664.832-2.854z"/></symbol><symbol id="icon-laptop" viewBox="0 0 48 32"><path d="m29.093 10.432h-9.248l-.384-2.032-3.147-1.376c-.047-.023-.103-.036-.161-.036-.209 0-.379.17-.379.379 0 .158.096.293.234.35l.003.001 2.763 1.189 1.797 9.227s0-.043 0-.037c.011.206.177.37.383.379l.001 0h7.275c.013.002.028.003.044.003.197 0 .357-.16.357-.357s-.16-.357-.357-.357c-.015 0-.03.001-.045.003l.002 0h-6.96l-.197-1.067 7.653-.277 1.099-5.195c.009-.043.015-.092.015-.142 0-.377-.306-.683-.683-.683-.024 0-.048.001-.071.004l.003 0z"/><path d="m22.704 20.123c0 .616-.499 1.115-1.115 1.115s-1.115-.499-1.115-1.115c0-.616.499-1.115 1.115-1.115s1.115.499 1.115 1.115z"/><path d="m28.709 20.123c0 .616-.499 1.115-1.115 1.115s-1.115-.499-1.115-1.115c0-.616.499-1.115 1.115-1.115s1.115.499 1.115 1.115z"/><path d="m43.141 24.416v-21.109c-.053-1.836-1.554-3.304-3.397-3.307h-31.467c-1.824 0-3.536 1.52-3.536 3.307v21.109h-4.741v1.515c.044 3.316 2.705 5.996 6.009 6.069l.007 0h36c3.258-.083 5.867-2.744 5.867-6.014 0-.019 0-.039 0-.058l0 .003v-1.515zm-35.317-21.109c0-.096.315-.224.469-.224h31.467c.155 0 .315.133.315.224v21.109h-32.251zm20.976 26.085h-9.6c-.695-.029-1.248-.6-1.248-1.3 0 0 0-.001 0-.001v0c .001-.128.02-.251.056-.366l-.002.009h12c .033.107.052.23.053.357v0c0 0 0 0 0 .001 0 .704-.559 1.277-1.256 1.301l-.002 0z"/></symbol><symbol id="icon-money" viewBox="0 0 35 32"><path d="m32.633 9.196 2.547-2.29.257-6.481-6.472-.425-2.547 2.29 6.472.425z"/><path d="m34.064 18.423c0 1.284-2.094 2.326-4.678 2.326s-4.678-1.041-4.678-2.326c0-1.284 2.094-2.326 4.678-2.326s4.678 1.041 4.678 2.326z"/><path d="m29.387 21.953c2.215 0 4.102-.78 4.567-1.821.069.148.11.322.111.505v0c0 1.285-2.095 2.326-4.678 2.326s-4.678-1.041-4.678-2.326c0-.007 0-.016 0-.024 0-.174.036-.339.101-.489l-.003.008c.474 1.041 2.343 1.821 4.58 1.821z"/><path d="m29.387 24.213c2.215 0 4.102-.78 4.567-1.821.069.148.11.322.111.505v0c0 1.285-2.095 2.326-4.678 2.326s-4.678-1.041-4.678-2.326c0-.007 0-.016 0-.024 0-.174.036-.339.101-.489l-.003.008c.474 1.041 2.343 1.821 4.58 1.821z"/><path d="m29.387 26.472c2.215 0 4.102-.78 4.567-1.821.069.148.11.322.111.505v0c0 1.285-2.095 2.326-4.678 2.326s-4.678-1.041-4.678-2.326c0-.007 0-.016 0-.024 0-.174.036-.339.101-.489l-.003.008c.474 1.041 2.343 1.821 4.58 1.821z"/><path d="m29.387 28.731c2.215 0 4.102-.78 4.567-1.821.069.148.11.322.111.505v0c0 1.285-2.095 2.326-4.678 2.326s-4.678-1.041-4.678-2.326c0-.007 0-.016 0-.024 0-.174.036-.339.101-.489l-.003.008c.474 1.041 2.343 1.821 4.58 1.821z"/><path d="m29.387 31.008c2.215 0 4.102-.78 4.567-1.821.066.145.105.313.106.491v0c0 1.285-2.095 2.326-4.678 2.326s-4.673-1.045-4.673-2.326c0-.009 0-.018 0-.029 0-.174.036-.339.101-.489l-.003.008c.474 1.041 2.343 1.838 4.58 1.838z"/><path d="m22.56 22.76c0 1.284-2.094 2.326-4.678 2.326s-4.678-1.041-4.678-2.326c0-1.284 2.094-2.326 4.678-2.326s4.678 1.041 4.678 2.326z"/><path d="m17.883 26.295c2.215 0 4.102-.78 4.567-1.821.069.148.11.322.111.505v0c0 1.285-2.095 2.326-4.678 2.326s-4.678-1.041-4.678-2.326c.001-.183.042-.357.114-.513l-.003.008c.465 1.041 2.334 1.821 4.567 1.821z"/><path d="m17.883 28.554c2.215 0 4.102-.78 4.567-1.821.069.148.11.322.111.505v0c0 1.285-2.095 2.326-4.678 2.326s-4.678-1.041-4.678-2.326c.001-.183.042-.357.114-.513l-.003.008c.465 1.041 2.334 1.821 4.567 1.821z"/><path d="m17.883 30.813c2.215 0 4.102-.78 4.567-1.821.069.148.11.322.111.505v0c0 1.285-2.095 2.326-4.678 2.326s-4.678-1.041-4.678-2.326c.001-.183.042-.357.114-.513l-.003.008c.465 1.041 2.334 1.821 4.567 1.821z"/><path d="m11.118 27.234c0 1.284-2.094 2.326-4.678 2.326s-4.678-1.041-4.678-2.326c0-1.284 2.094-2.326 4.678-2.326s4.678 1.041 4.678 2.326z"/><path d="m6.441 30.769c2.215 0 4.102-.78 4.567-1.821.069.148.11.322.111.505v0c0 1.285-2.095 2.326-4.678 2.326s-4.669-1.045-4.669-2.33c.001-.183.042-.357.114-.513l-.003.008c.456 1.045 2.326 1.825 4.558 1.825z"/><path d="m .886 20.102c-.004 0-.009 0-.013 0-.489 0-.886-.397-.886-.886 0-.269.12-.51.309-.672l.001-.001 6.831-6.14 9.395 2.702 15.305-12.447c.152-.126.35-.202.565-.202.492 0 .891.399.891.891 0 .277-.126.524-.324.688l-.002.001-16.031 13.05-9.342-2.693-6.091 5.48c-.157.143-.366.23-.596.23-.004 0-.008 0-.011 0h .001z"/></symbol><symbol id="icon-arrow" viewBox="0 0 29 32"><path d="m14.281 31.93c-.446 0-.808-.362-.808-.808v0-30.313c0-.446.362-.808.808-.808s.808.362.808.808v0 30.313c0 .446-.362.808-.808.808z"/><path d="m14.281 32c-.223 0-.425-.091-.571-.237v0l-13.473-13.473c-.134-.144-.217-.338-.217-.551 0-.446.362-.808.808-.808.213 0 .407.083.552.217l0 0 12.901 12.896 12.901-12.901c.144-.134.338-.217.551-.217.446 0 .808.362.808.808 0 .213-.083.407-.217.552l0 0-13.473 13.473c-.145.148-.347.241-.571.242h0z"/></symbol><symbol id="icon-Asset-3" viewBox="0 0 41 32"><path d="m35.4 0-19.867 16.493-7.387-8.013-8.147 8.16 15.36 15.36 25.973-25.96-5.933-6.04z"/></symbol><symbol id="icon-form" viewBox="0 0 26 32"><path d="m10.688 20.8v0c-.488-.004-.923-.226-1.214-.573l-.002-.003-3.072-3.776 2.416-2.048 1.872 2.272 6.032-7.072 2.48 2-7.296 8.592c-.288.362-.723.595-1.214.608z"/><path d="m24 0h-22.4c-.884 0-1.6.716-1.6 1.6v0 28.8c0 .884.716 1.6 1.6 1.6v0h17.344c.003 0 .006 0 .009 0 .44 0 .838-.177 1.127-.464l5.024-5.024c.285-.288.462-.683.464-1.12v-23.792c0 0 0 0 0 0 0-.872-.698-1.582-1.566-1.6l-.002 0zm-20.8 3.2h19.2v20.8h-3.2c-.884 0-1.6.716-1.6 1.6v0 3.2h-14.4z"/></symbol><symbol id="icon-phone" viewBox="0 0 32 32"><path d="m16.008 0c-.004 0-.01 0-.015 0-8.841 0-16.008 7.167-16.008 16.008s7.167 16.008 16.008 16.008c8.841 0 16.008-7.167 16.008-16.008v0c0-8.835-7.158-15.999-15.992-16.008zm4.23 25.729c-1.365-.105-10.232-2.235-13.982-12.797-.75-2.205.18-5.776 2.745-6.571s3.856 2.76 4.231 5.026l-2.25 2.235s0 1.395 3 4.501 4.501 3 4.501 3l2.52-2.625c1.909.692 3.558 1.537 5.079 2.558l-.083-.053c-.143 2.669-2.342 4.778-5.034 4.778-.256 0-.509-.019-.755-.056l.028.003z"/></symbol><symbol id="icon-share" viewBox="0 0 34 32"><path d="m25.333 16 2.493-1.973v15.627c0 0 0 0 0 0 0 1.291-1.043 2.339-2.333 2.347h-23.147c-1.296 0-2.347-1.051-2.347-2.347v0-23.147c0-1.296 1.051-2.347 2.347-2.347h12.96c-1.449.753-2.693 1.669-3.774 2.747l0 0h-8.787v22.347h22.347v-13.107zm8.147-8.933-8.867-7.067v4.32l-.893-.08c-.48 0-.96 0-1.427 0-.099-.003-.216-.004-.333-.004-3.965 0-7.523 1.745-9.948 4.509l-.013.015c-3.267 3.653-5.173 9.467-5.2 15.413 1.502-4.09 3.964-7.527 7.122-10.156l.038-.031c1.339-1.044 2.904-1.877 4.602-2.412l.105-.028c1.264-.398 2.717-.627 4.224-.627.006 0 .011 0 .017 0h1.706v3.467l8.88-7.053c.064-.041.108-.108.12-.185l0-.001c-.03-.042-.071-.074-.118-.093l-.002-.001z"/></symbol></defs></svg>